<?xml version="1.0" encoding="utf-8"?>
<!-- Generator: Adobe Illustrator 23.1.1, SVG Export Plug-In . SVG Version: 6.00 Build 0)  -->
<svg version="1.1" xmlns="http://www.w3.org/2000/svg" xmlns:xlink="http://www.w3.org/1999/xlink" x="0px" y="0px"
	 viewBox="0 0 447.6 539.5" style="enable-background:new 0 0 447.6 539.5;" xml:space="preserve">
<style type="text/css">
	.st0{fill:#F43490;}
	.st1{fill:#F421F4;}
	.st2{fill:#BFF44D;}
	.st3{fill:#3DD8FC;}
	.st4{fill:#F9811E;}
	.st5{fill:#F9A319;}
	.st6{fill:#0F5B14;}
	.st7{fill:#1DCE36;}
	.st8{fill:#1D1DD6;}
	.st9{fill:#E81F1F;}
	.st10{fill:#602FF7;}
</style>
<g id="outline">
	<path d="M117.2,316.6c6.8-26,18-50,36.1-70c-7.1-0.4-14.4-0.1-21.3-1.5c-18.8-3.7-33.8-13.3-44.3-29.6c-9.3-14.4-15.2-30-15.9-47.2
		c-0.4-11,1.7-21.5,7.6-31c5.5-8.9,14.5-12.5,24.1-14.6c11.6-2.5,23.4-2.9,35.2-0.7c1.7,0.3,3.5,0.3,4.7,0.4
		c-3.2-9.6-7.1-18.8-9.3-28.4c-4.6-20.2-0.5-39,12-55.7c4.4-5.9,13-7.2,18.5-2.2c3.2,2.8,5.7,6.4,8.2,10c1.8,2.6,3.1,5.5,4.5,8.3
		c2.9,6.1,5.7,11.8,14.6,9.1c3.3-1,7.4,0.7,11.7,1.3c4.6-20.5,4.8-43.4,26.2-56.3c-2.2,7.5-7.2,14.1-6.4,23.7
		c10.1-11.5,20.6-21,33.5-27.6c-3.4,5.1-6.7,10.2-10.1,15.3c20.8-11.6,41.5-21.7,65.8-19.7c-12.6,5.4-25.2,10.5-35.4,23
		c6.4,0,11.5,0.1,16.7-0.1c0.9,0,2.1-1.1,2.5-1.9c3.4-6.3,8.6-10.4,15-13.2c7.2-3.2,13.8-1.1,18.2,5.6c7.7,11.9,10.2,25.1,9.3,39.1
		c-0.1,1.4-0.3,2.8-0.4,4.8c1.4-0.7,2.3-1.1,3.2-1.5c6.8-3.5,6.6-3.5,5.3-11c-2.1-12.3,1.2-23,11.2-30.7c10.8-8.3,24.1-3.6,28.1,9.4
		c4.8,15.8-0.7,28.9-15.3,37.3c1.1,5.3,2.5,10.4,3.2,15.6c0.4,3,1.7,3.3,4.3,3.2c5.5-0.3,11-0.1,16.6,0.7c-4.9,0.6-9.8,1.1-14.7,1.9
		c-1.8,0.3-3.4,1.3-5.1,2c1.7,1,3.2,2.4,5,2.9c6.3,1.9,12.7,3.5,18.6,9.2c-8.2-2.8-15-5.2-22.4-7.7c-0.6,5.2-1.2,10-1.6,14.7
		c-0.1,1,0.7,2.5,1.6,3.1c11.8,7.7,16.4,19.3,17.5,32.6c0.3,3.2,1.6,4.5,4.2,5.8c7,3.7,14.3,7.1,20.8,11.6
		c7.5,5.1,11.5,12.7,11.4,22.1c0,1.6,0.9,3.5,2.1,4.7c19.8,20.4,22.2,61.2-4.4,84.3c-2,1.7-4.4,3-5.8,4c4.4,10.3,9.8,20.2,12.7,30.7
		c8.5,30.6,2.2,59.3-13.4,86.3c-8.5,14.7-20.3,26.8-31.9,38.9c-1.3,1.3-2.5,2.7-4,4.3c1,0.6,1.7,1.1,2.5,1.5
		c11.8,4.7,18.9,15.7,18.6,28.5c0,1.4,0.9,3,1.8,4.3c1.8,2.6,4.1,4.9,5.6,7.6c3.1,5.8,0.8,10.7-5.6,12.9c-6.8,2.3-13.4,0.7-20.1-0.6
		c-2.5-0.5-5.6-0.4-7.9,0.5c-11,4.5-22.1,3.9-32.5-0.9c-8.5-3.9-16.1-9.7-24.2-14.5c-1.5-0.9-3.8-1.9-5.1-1.4
		c-19.4,8.4-39.7,10.5-60.5,10c-2.2,0-4.3,0-7.3,0c0.2,1.8-0.1,3.7,0.7,5c0.4,0.7,2.8,0.6,4.1,0.3c18.6-4.9,34.7,0.5,49.6,11.6
		c1.5,1.1,3.8,1.9,5.6,1.7c6.4-0.7,12.6-0.9,18.6,2.1c7.4,3.7,8.2,10.5,1.7,15.8c-2.2,1.7-4.7,3.4-7.3,4.1c-7.7,2-15.6,3.1-23.2,5.2
		c-2.8,0.8-5.8,2.6-7.6,4.9c-6.2,7.9-14.9,8.4-23.6,8.9c-8.5,0.5-17.1,0.4-25.6,0c-5.2-0.3-10.2-2.4-15.4-2.7
		c-9.4-0.5-16.9-5.7-24.9-9.4c-15.7-7.4-31.6-14.1-49.2-15.7c-6-0.5-11.4-1.9-15-7.4c-3.5-5.5-2.4-12.1,3.6-17.9
		c2.5-2.4,5.5-4.3,8.3-6.4c-10-5-20.1-10-31-15.4c-10.8,7.3-24.1,13.1-38.4,15.2c-24.1,3.5-47.2,1.1-65.3-17.5
		c-9.4-9.6-13.2-22.6-15.3-35.7c-4-24.6,1.7-47.8,11.8-69.9c11.5-25.2,24.6-49.8,36.7-74.8c10.3-21.3,16.7-43.8,17.8-67.6
		c0.8-17.9-6.3-32.4-19.3-44.1c-8.1-7.4-22.1-6.2-29.3,2.1c-1.5,1.7-3.1,3.3-4.8,4.7c7.8-16.8,24.4-18.4,37.1-9.5
		c10.7,7.5,15.9,18.5,17.9,31.1c3.5,22.2-0.2,43.7-8.1,64.2c-6.9,17.9-15.7,35.2-24.3,52.4c-11.9,23.6-24,47.1-30.3,73
		c-4.1,16.9-3.7,33.2,3.4,49.3c8.6,19.4,23.3,30.1,44.4,32.3c20.7,2.2,38.6-4.4,55.5-16.6c-23.1-32-30.4-65.5-10.3-102.5
		c-7,2.1-13.3,4.2-19.7,5.8c-1.7,0.4-4.7,0.1-5.5-1c-0.9-1.3-0.6-4.2,0.4-5.8c3.9-6.4,9.9-9.6,17.3-10.5c0.2-0.4,0.5-0.9,0.7-1.3
		c-3.4-1.8-6.9-3.6-10.3-5.4c-3.4-1.7-7-3.1-10-5.3c-1.4-1-2.7-3.9-2.3-5.5c0.4-1.5,3.1-3.5,4.7-3.4c4.2,0.2,8.4,1.3,12.4,2.4
		c2.6,0.8,5,2.4,8.5,4c-0.1-2.5,0.1-4.3-0.3-5.9c-0.8-2.7-2.1-5.2-3.1-7.9c-1.2-3-2.4-6.8,1.1-8.4c2.3-1.1,6-0.4,8.6,0.7
		c1.9,0.7,3.6,3.1,4.3,5.1C108.1,313.3,110.1,317.6,117.2,316.6z M185.4,419.2c0-0.4,0-0.9-0.1-1.3c10.4-3.8,20.7-7.6,31.1-11.5
		c-0.1-0.4-0.2-0.9-0.3-1.3c-6.8-0.4-13.6-0.9-20.4-1.3c4.4-1.3,9.3-2.7,13.4-1.6c9.9,2.6,19.8,2.6,29.9,2.4
		c11.6-0.2,22.3,3.3,31.2,11.3c6,5.5,8,13.8,5,21.4c-4.1,10.4-11.4,18.2-20.1,24.9c-3.9,3-8,5.7-12,8.6c3.5,4.5,8,5.6,13,5.7
		c15.4,0.3,30.6-1,45.5-5.1c44.6-12.4,82.1-35.3,108.8-73.7c17.4-25.1,30-52,24-84c-3.3-17.6-10.3-33.3-23.3-45.9
		c-1.1-1-3.3-2-4.5-1.5c-7.6,2.8-15.5,5.2-22.5,9.2c-17.8,10.3-35.2,21.6-52.8,32.2c-14.1,8.5-28.5,16.4-44.7,20.5
		c-21.9,5.5-43.4,5.8-64.2-4.2c-4.9-2.4-9.8-7-14.5-6.7c-5,0.3-9.7,5.4-14.6,8.2c-19,10.8-38.6,20.2-60.3,24.3
		c-8.8,1.7-11.5,4.7-12.6,13.7c-0.1,1.1,0,2.3,0,5c-3.8-1.3-7.6-1.6-9.7-3.6c-4.9-4.4-2.6-10-1-15.8c-1.7,0.1-3.5,0.5-4.2,1.5
		c-2.9,4.2-6,8.5-8,13.1c-16.4,36.9,1.6,85.7,38.2,105c15.8,8.3,31.5,10.4,48.3,3c12.9-5.7,25.9-11.2,39.1-16.1
		c5.7-2.1,12-2.5,18.1-3.7c0.1,0.6,0.3,1.1,0.4,1.7c-16.5,4.2-32.6,9.5-47.3,18.8c7.9,7.6,16.7,6.7,25.4,4.5
		c18.9-4.8,33.7-16.1,46.1-30.8c2.2-2.6,3.9-5.8,5.3-9c3.9-9,2.1-15.4-5.7-21.4c-7.6-5.8-16.4-7.6-25.7-8.3c-12.5-1-23.9,3.2-35.4,7
		C197.9,416.4,191.6,417.6,185.4,419.2z M182.5,160.7c-27.8,10.3-51,12.4-64.3,5.8c1.3,0.1,2.1,0.1,2.9,0.2
		c23.7,2.2,46.9,2.1,67-13.9c5.4-4.3,6.2-6.7,0.1-9.4c-11.9-5.3-24-10.6-36.5-14.4c-18.2-5.6-36.8-7.2-55.4-0.7
		c-6.1,2.1-10.6,5.9-14.2,11.2c-8.3,12.1-8.4,25.4-5.7,38.9c4.6,23.6,15,43.5,36.5,56.4c26.3,15.8,56.5,8.5,72.1-17.8
		c6.3-10.7,10-22.3,11-34.7c1.4,10.7-0.6,20.9-5.2,30.5c-1.9,4-1,6,2,8.8c15.1,14.3,33.6,21.9,53.1,27.4
		c36.8,10.4,72.3,8.8,105.5-12.5c14.1-9,26.2-19.9,33.7-35.3c1.1-2.4,1.7-4.1-0.7-6.5c-8-7.9-8.9-17.4-3.3-27.4
		c0.9-1.5,1.8-3,2.8-4.6c-8.5-3.2-17.2-5.5-22.1-14.2c-2.1,2.4-3.7,4.7-5.7,6.7c-12.4,12.4-26.7,20.4-44.3,13.7
		c-8.4-3.2-15.5-10.1-23.3-15.1c-6.4-4.1-12.8-8.3-19.4-12c-5.7-3.2-10.7-0.9-14.8,3.4c-2.7,2.8-4.9,5.9-7.6,9.2
		c0.4-13.5,24.2-26.1,34.4-22.5c1.6,0.6,2.9,1.9,4.4,2.8c-6.7-2.2-14.3-1.1-18.6,3c3.2,1.2,7,1.8,9.9,3.8
		c6.1,4.2,12.3,8.6,17.5,13.9c20.6,20.6,53.4,13,64.3-9.4c12.5-25.5,18.6-51.1,10.1-79c-0.9-3.1-2.4-4.6-5.5-5.5
		c-4.6-1.4-9-3.6-14.5-5.8c-24.9,19.2-46,43.2-61.6,71.2c-2-1.7-3.3-3.6-4.9-4c-7.8-2.1-15.7-4.6-23.7-5.4
		c-9.7-0.9-19.5-0.2-29.1-0.2c4.6-1.1,9.6-2.4,14.8-3.6c-10-13.7-12.5-19.1-12.7-25.7c-0.3-9.3,4.7-21.5,13.8-23
		c-0.3,1.1-0.5,2.1-0.8,3.3c3.7,0.4,7.2,0.9,10.6,1c16.6,0.4,27.1,9.5,34.1,23.6c4.5,9.1,4,17.9-2.6,26.1c-0.6,0.7-0.4,2.1-0.6,3.1
		c0.4,0.1,0.8,0.2,1.3,0.3c4.9-8.7,9.8-17.5,14.5-26c-3.6-2.1-6.8-3.6-9.5-5.7c-7.7-5.9-12.5-13.3-13.3-23.5
		c-0.7-8.8-1.3-8.8,6.2-13.2c0.4-0.3,0.7-0.8,1.1-1.1c-0.2-0.4-0.5-0.8-0.7-1.2c-5.9,2.5-11.8,5-18.9,8c0.9-2.9,1.4-4.6,2.2-7
		c-2.6,1.3-4.7,2.3-6.7,3.4c17.5-14.5,38-18.3,60.1-16.9c-17.5-14.9-37.3-15.3-58.1-10.2c1.5-1.5,3.1-2.5,4.8-3.3
		c1.8-0.9,4.4-1,5.3-2.4c5.3-8.3,12.9-14,21.4-18.7c-20.5,3-38.5,11.1-53.7,25.4c-0.3-0.3-0.6-0.6-0.9-0.8c1.1-3.8,2.2-7.5,3.3-11.3
		c-0.2-0.1-0.4-0.2-0.7-0.3c-3.2,3.7-6.3,7.4-9.6,11.2c-0.5-1.1-0.8-1.6-1.4-2.8c-4.2,5.4-8,10.2-11.8,15.1c-0.5-0.1-1-0.3-1.5-0.4
		c1.3-8,2.7-16,4-23.8c-0.8,1-2,2.3-3,3.8c-7.9,12.2-9.7,26.4-11.9,40.3c-2.6,16.2-3.7,32.8-7.4,48.7c-2.3,10.1-8.2,19.3-12.5,29.2
		c-0.1-0.1,0.6,0.3,1.3,0.7c9.6,7.3,7.7,7.2,1.5,13.7c-1.5,1.6-3.5,3.5-3.7,5.4c-1.4,15-11.2,23.7-22.6,31.3
		c3.5-4.5,7.7-8.5,11.1-13C179.4,172.2,182.6,167.1,182.5,160.7z M211.8,313.6c0.5,0.6,0.7,1,1,1.1c2.1,1,4.3,1.8,6.3,2.9
		c27.8,14.9,55.9,12.8,83.5,0.2c14.2-6.5,27.7-14.4,41.1-22.4c17.9-10.5,35.2-22.1,54.8-29.5c5.6-2.1,11.4-3.9,17.6-5.9
		c-9.6-7.8-20.1-11.8-32.3-12.9c1.9-1,3.3-1.6,4.2-2.1c-6-6-12-12-18.1-18.1c-25.4,24.1-56.9,32.3-91.8,30.3
		c-34.5-1.9-65.3-13-89.9-36.1c-7.8,6.8-15.2,13.3-22.6,19.8c-4.2,3.7-9,6.9-12.6,11.1c-5.3,6.1-9.7,13-14.4,19.5
		c36.2-8,61.6,14.5,55.9,48.4c17.4-8.6,29.6-23.3,44.7-34.3c-4.9,5.7-9.8,11.3-14.8,17c0.2,0.5,0.4,1,0.7,1.5c8.4-2,16.8-4,25.3-6
		c-6.6,5.3-14.5,7-22.6,6.9C220.5,305.1,216.4,309.3,211.8,313.6z M303.8,499.6c-20.1-14.8-40.9-17.7-63.3-7.1
		c2.1-1.7,4.2-3.5,6.9-5.8c-9.1-1.3-16.8,1.1-24.6,3.1c-9.8,2.5-19.6,5.5-29.5,6.5c-11.2,1.2-21.2-2-26.2-13.8
		c-0.5-1.1-2.5-2.1-3.8-2.2c-7.6-0.5-19,6.9-22.2,14c-2,4.5-0.7,8.8,3.7,10.9c3,1.4,6.2,3,9.4,3.2c17.9,1.5,34,8.2,50.1,15.5
		c15.1,6.8,30.5,13.4,47.5,14c15.6,0.6,31.2,1.2,42.4-13.1c-0.8-0.7-1.7-1.4-3.2-2.6c5.3-0.3,9.8,0.1,14.1-0.9
		c7-1.5,14.2-3.3,20.7-6.2c2.9-1.3,4.4-5.6,6.5-8.5c-3.2-1.8-6.3-4.9-9.5-5.1c-7.4-0.5-14.8,0.5-21.8,0.8
		C301.3,501.9,302.2,501,303.8,499.6z M430.5,187.3c-1.1,4.3-1.9,7.7-2.7,11c-0.5-5.9-0.6-11.6-0.5-17.3c0.1-7.3-2.1-13.5-7.4-18.9
		c-8.5-8.7-19-13.4-30.5-15.7c-6.1-1.2-12.5-1.2-18.8-1.4c-1.4,0-4.1,1.4-4,2c0.1,1.8,0.8,4.3,2.2,5.1c4.1,2.4,8.6,4.2,12.9,6.2
		c2.2,1,4.4,1.8,6.9,2.7c-4.5,8.8-10.6,16.6-5.4,26.3c4.6,8.7,13.9,10.9,22,14.7c-0.2,0.5-0.4,1.1-0.6,1.6
		c-5.1-1.2-10.2-2.4-14.8-3.5c-3.9,5.6-7.9,11.4-12,17.2c-1.1,1.6-2.2,3.3-3.3,4.9c-1.5,2.1-1.2,3.7,0.7,5.6
		c8.4,8.4,16.9,16.4,28.4,20.6c3.8,1.4,7.5,3.7,10.8,6.1c2.6,2,4.5,4.9,7.4,8.3c-3,0.3-4.3,0.3-5.6,0.5c-1.2,0.2-2.4,0.7-3.7,1.1
		c6.2,5.8,7.1,6,13.2,1.3c2.3-1.8,4.5-4,6.2-6.4c7.8-10.8,12.3-22.9,12.1-36.3C443.8,210.2,440.3,198.1,430.5,187.3z M95.9,327.2
		c-1-0.5-1.9-1-2.8-1.3c-5.2-2.1-10.3-4.6-15.6-6.2c-1.3-0.4-3.4,1.7-5.1,2.7c1,1.5,1.7,3.5,3.1,4.3c3.5,1.9,7.4,3.1,10.9,4.8
		c3.7,1.9,7.8,3.6,8.7,8.5c-17.9,7.1-19.6,8.5-18.6,15.6c4.1-1.5,8.1-3,12.1-4.6c8.4-3.3,16.6-5.4,26.1-4.1c8.5,1.1,18.1,0.9,26-2
		c14.8-5.3,28.6-13.3,43.2-19.3c8.2-3.4,9.9-10,9-16.9c-3.4-27.3-22-40.7-48.4-34.5c-5.2,1.2-9.9,3.6-12.1,9.3
		c-3.3,8.5-7,16.8-10.3,25.3c-1.7,4.4-2.8,8.9-4.2,13.2c-3.7-1.7-6.9-3.2-10.6-4.9c-1.3-2.6-2.5-6.4-4.8-9.3c-1.7-2-4.8-2.8-7.3-4.2
		c0,2.5-0.5,5,0.2,7.3C96.9,316.4,98.4,321.6,95.9,327.2z M177.4,64.6c-1.7-3.9-3-7.7-4.8-11.2c-2.6-4.9-5.1-10.2-8.7-14.3
		c-4.6-5.1-12.6-4.1-16.2,1.8c-3.3,5.3-6.4,11-8.3,16.9c-7.3,22.7-2.2,43.9,8.5,64.3c0.6,1.1,1.7,2.1,2.8,2.5
		c11.4,4,22.9,7.8,34.4,11.7c0.4-0.6,0.9-1.1,1.2-1.6c13-19.5,16.2-41.5,17.1-64.2c0.1-3.4-2.1-4.2-4.4-4c-7.9,0.5-15.8,1-23.5,2.3
		c-5,0.8-9.7,3-14.5,4.6c-0.1-0.3-0.3-0.7-0.4-1C165.9,69.9,171.4,67.3,177.4,64.6z M326.5,467.8c7.9,8.4,25.3,17,36.9,18
		c5.1,0.4,10.1,0.2,14.5-3.6c-2.4-1.9-4.4-3.6-6.4-5.2c1.1-0.4,1.8-0.2,2.5,0.1c8.2,2.6,16.3,5.6,24.6,7.8c3,0.8,6.7,0.1,9.7-0.9
		c4.2-1.4,5.2-4.5,2.7-8.3c-2-3.2-4.3-6.5-7.3-8.7c-6.9-5-14.3-9.2-21.6-13.9c8.7-0.7,15,4.6,21.7,8.9c1.9-11.7-11-26.6-22.3-26
		c-1.5,0.1-3,1.2-4.3,2.1c-5.8,3.9-11.3,8.3-17.3,11.8C348.9,456.2,337.6,461.9,326.5,467.8z M283.7,46.8
		c16.6,4.9,28.5,14,35.3,29.9c6.8-7.1,15.5-13.1,16.2-23.4c0.9-12.5-1.1-24.9-7.7-36c-4.6-7.6-10.6-9.5-17.1-5.1
		c-4.1,2.8-7.5,6.7-11.8,10.7c13,3.9,23.3,9.4,31.2,20.6C313.7,40.2,299,41.7,283.7,46.8z M384.3,33.4c0-1.2,0-2.3,0-3.5
		c-0.2-7.7-4.8-14.4-11-16.2c-5.3-1.5-13.4,1.9-17,8c-5,8.3-7.8,17.2-5,27.1c2.8,9.8,10.5,13.5,19.7,8.9
		C380.8,52.8,384.3,44,384.3,33.4z M282.8,88.1c-6.6-11.8-24.3-19.3-38.4-16.4c-2.7,0.6-5.7,3.7-6.9,6.3c-1.4,3.1-1.7,7.1-1.4,10.7
		c1.2,17.2,13.5,27.7,29,25C257.5,98.5,265.4,84.8,282.8,88.1z M246.5,480.7c-2.2-7.7-6.6-9.6-14.4-5.4c-1.8,0.9-3.4,2.1-5.2,3
		c-12.2,6.5-25.4,5.1-36.1-3.7c-0.8-0.7-2.4-1-3.5-0.7c-4.2,1.1-8.3,2.5-12.4,3.8c-3.6,1.1-3.7,3.7-2.1,6.2c1.3,2,3.2,3.9,5.2,5.2
		c7.2,4.6,15.3,5.7,23.5,3.7C216.6,489,231.5,484.7,246.5,480.7z M7.5,442.1c0.2,0.7,0.5,1.6,0.9,2.5c6.6,13.8,16.1,23.8,31.5,28.3
		c25.4,7.4,49.5,5.8,72.4-7.8c6-3.6,5.9-5.4,1.1-9.1c-9.9,4.5-19,9.8-28.9,13c-23.1,7.5-45,4.9-64-11.2
		C15.3,453.6,11.7,447.4,7.5,442.1z M366.4,140.1c7.1,0.7,14.1,1.4,21.1,1.9c1.1,0.1,3.1-0.9,3.2-1.7c1.7-8.1-7.2-25.2-15.3-29.8
		C372.3,120.7,369.2,130.8,366.4,140.1z M313.9,74.4c-3.6-8.4-8.8-13.7-16-17.1c-8.3-3.8-16.1,0.7-15.8,9.7
		c0.2,7.9,3.8,14.5,10.3,20c0.3-6.1,0-11.8,5.8-14.8C303.9,69.3,309.1,70.4,313.9,74.4z M121.2,350.7c-2.9-0.4-5.6-0.7-8.5-1.1
		c-1.9,5.1-4.7,9.8-0.4,14.6c2.2,2.5,4.9,2,5.6-0.9C119,359.4,120,355.4,121.2,350.7z"/>
	<path d="M228.4,59.5c-13.6,12.1-10.6,25.7-3.9,40.2c-9.7-3.4-16.8-17-15.2-26.5C210.7,65.1,217.8,59.6,228.4,59.5z"/>
	<path d="M338.2,193.3c-6,12.4-15,20.3-29.4,20.6c5.3-2.8,11-5,15.9-8.5C329.6,202,333.7,197.4,338.2,193.3z"/>
	<path d="M345.6,80.8c-8,4.6-16,9.2-25,14.4C327.8,87.1,335.9,82.7,345.6,80.8z"/>
	<path d="M336.2,106.8c3.7-6.2,7.4-12.5,11.1-18.7c0.5,0.3,1,0.6,1.5,0.8c-3.7,6.2-7.4,12.3-11.2,18.5
		C337.2,107.2,336.7,107,336.2,106.8z"/>
</g>
<g id="fill">
	<g id="fill_x5F_hat">
		<path class="st0" d="M177.4,64.6c-5.9,2.7-11.4,5.3-16.9,7.8c0.1,0.3,0.3,0.7,0.4,1c4.8-1.6,9.6-3.8,14.5-4.6
			c7.8-1.3,15.7-1.8,23.5-2.3c2.3-0.2,4.5,0.6,4.4,4c-0.9,22.7-4.1,44.7-17.1,64.2c-0.4,0.5-0.8,1-1.2,1.6
			c-11.5-3.9-23-7.7-34.4-11.7c-1.1-0.4-2.3-1.5-2.8-2.5c-10.8-20.4-15.8-41.6-8.5-64.3c1.9-5.9,5.1-11.6,8.3-16.9
			c3.6-5.8,11.6-6.9,16.2-1.8c3.7,4.1,6.1,9.4,8.7,14.3C174.4,56.9,175.7,60.7,177.4,64.6z"/>
	</g>
	<g id="fill_x5F_nose">
		<path class="st1" d="M384.3,33.4c0,10.6-3.4,19.3-13.4,24.3c-9.2,4.5-16.9,0.8-19.7-8.9c-2.8-9.9,0-18.8,5-27.1
			c3.6-6,11.7-9.5,17-8c6.2,1.8,10.8,8.5,11,16.2C384.3,31.1,384.3,32.3,384.3,33.4z"/>
	</g>
	<g id="fill_x5F_face">
		<path class="st2" d="M182.5,160.7c0.1,6.4-3.1,11.6-6.6,16.3c-3.4,4.6-7.5,8.6-11.1,13c11.3-7.6,21.2-16.3,22.6-31.3
			c0.2-1.9,2.2-3.8,3.7-5.4c6.2-6.5,8.1-6.4-1.5-13.7c-0.6-0.5-1.4-0.8-1.3-0.7c4.4-9.9,10.2-19.2,12.5-29.2
			c3.7-16,4.8-32.5,7.4-48.7c2.2-13.9,4-28,11.9-40.3c1-1.5,2.2-2.9,3-3.8c-1.3,7.7-2.6,15.7-4,23.8c0.5,0.1,1,0.3,1.5,0.4
			c3.8-4.8,7.6-9.7,11.8-15.1c0.6,1.1,0.9,1.7,1.4,2.8c3.3-3.8,6.5-7.5,9.6-11.2c0.2,0.1,0.4,0.2,0.7,0.3c-1.1,3.8-2.2,7.5-3.3,11.3
			c0.3,0.3,0.6,0.6,0.9,0.8C256.9,15.6,275,7.5,295.5,4.5c-8.6,4.7-16.1,10.4-21.4,18.7c-0.9,1.4-3.5,1.5-5.3,2.4
			c-1.7,0.8-3.3,1.9-4.8,3.3c20.9-5.1,40.6-4.7,58.1,10.2c-22.1-1.4-42.6,2.4-60.1,16.9c2.1-1,4.1-2.1,6.7-3.4
			c-0.7,2.4-1.3,4.1-2.2,7c7.1-3,13-5.5,18.9-8c0.2,0.4,0.5,0.8,0.7,1.2c-0.4,0.4-0.7,0.9-1.1,1.1c-7.6,4.4-6.9,4.3-6.2,13.2
			c0.8,10.2,5.6,17.6,13.3,23.5c2.7,2.1,5.9,3.6,9.5,5.7c-4.8,8.5-9.7,17.3-14.5,26c-0.4-0.1-0.8-0.2-1.3-0.3c0.2-1.1,0-2.4,0.6-3.1
			c6.5-8.2,7.1-17.1,2.6-26.1c-7-14.1-17.5-23.2-34.1-23.6c-3.5-0.1-6.9-0.6-10.6-1c0.3-1.2,0.5-2.2,0.8-3.3
			c-9.1,1.5-14.1,13.7-13.8,23c0.2,6.6,2.7,12,12.7,25.7c-5.1,1.3-10.1,2.5-14.8,3.6c9.6,0,19.4-0.7,29.1,0.2
			c8,0.8,15.9,3.3,23.7,5.4c1.6,0.4,2.9,2.3,4.9,4c15.5-28,36.7-52.1,61.6-71.2c5.4,2.2,9.8,4.4,14.5,5.8c3.1,1,4.5,2.4,5.5,5.5
			c8.5,27.9,2.4,53.5-10.1,79c-11,22.3-43.7,29.9-64.3,9.4c-5.3-5.2-11.4-9.7-17.5-13.9c-2.9-2-6.7-2.6-9.9-3.8
			c4.3-4.1,11.9-5.2,18.6-3c-1.4-1-2.8-2.3-4.4-2.8c-10.1-3.6-34,9-34.4,22.5c2.6-3.2,4.9-6.4,7.6-9.2c4.1-4.3,9.1-6.5,14.8-3.4
			c6.6,3.7,13,7.9,19.4,12c7.8,5.1,14.8,11.9,23.3,15.1c17.7,6.7,32-1.3,44.3-13.7c2-2,3.6-4.3,5.7-6.7c4.9,8.7,13.6,10.9,22.1,14.2
			c-1,1.6-2,3.1-2.8,4.6c-5.6,9.9-4.6,19.4,3.3,27.4c2.4,2.4,1.9,4.1,0.7,6.5c-7.5,15.3-19.6,26.2-33.7,35.3
			c-33.1,21.3-68.7,22.9-105.5,12.5c-19.5-5.5-38-13.1-53.1-27.4c-2.9-2.8-3.9-4.8-2-8.8c4.6-9.6,6.6-19.8,5.2-30.5
			c-1,12.4-4.7,24-11,34.7c-15.6,26.3-45.9,33.5-72.1,17.8c-21.5-12.9-31.8-32.8-36.5-56.4c-2.7-13.5-2.6-26.8,5.7-38.9
			c3.6-5.2,8.2-9,14.2-11.2c18.6-6.5,37.2-4.8,55.4,0.7c12.5,3.8,24.6,9,36.5,14.4c6.1,2.7,5.3,5.2-0.1,9.4
			c-20.1,16-43.3,16-67,13.9c-0.8-0.1-1.6-0.1-2.9-0.2C131.5,173.1,154.6,170.9,182.5,160.7z M228.4,59.5
			c-10.5,0-17.7,5.6-19.1,13.7c-1.6,9.4,5.5,23,15.2,26.5C217.8,85.3,214.8,71.6,228.4,59.5z M338.2,193.3
			c-4.5,4.1-8.6,8.7-13.5,12.1c-4.9,3.4-10.6,5.7-15.9,8.5C323.2,213.6,332.2,205.7,338.2,193.3z M345.6,80.8
			c-9.6,1.9-17.8,6.3-25,14.4C329.5,90,337.6,85.4,345.6,80.8z M336.2,106.8c0.5,0.2,0.9,0.4,1.4,0.6c3.7-6.2,7.4-12.3,11.2-18.5
			c-0.5-0.3-1-0.6-1.5-0.8C343.6,94.4,339.9,100.6,336.2,106.8z"/>
		<path class="st2" d="M283.7,46.8c15.3-5.2,30-6.6,46.1-3.3c-7.9-11.2-18.2-16.7-31.2-20.6c4.3-4,7.6-7.9,11.8-10.7
			c6.4-4.3,12.5-2.5,17.1,5.1c6.6,11,8.6,23.5,7.7,36c-0.7,10.3-9.4,16.3-16.2,23.4C312.2,60.9,300.2,51.8,283.7,46.8z"/>
		<path class="st2" d="M366.4,140.1c2.9-9.3,6-19.4,9.1-29.5c8.1,4.5,17,21.7,15.3,29.8c-0.2,0.8-2.2,1.8-3.2,1.7
			C380.5,141.6,373.5,140.8,366.4,140.1z"/>
	</g>
	<g id="fill_x5F_back_x5F_hand">
		<path class="st3" d="M430.5,187.3c9.8,10.8,13.3,22.9,13.5,36c0.2,13.4-4.3,25.5-12.1,36.3c-1.7,2.4-3.9,4.6-6.2,6.4
			c-6.1,4.7-7,4.5-13.2-1.3c1.4-0.4,2.5-0.9,3.7-1.1c1.3-0.2,2.6-0.3,5.6-0.5c-3-3.4-4.8-6.3-7.4-8.3c-3.3-2.5-6.9-4.7-10.8-6.1
			c-11.5-4.2-20-12.2-28.4-20.6c-1.9-1.9-2.2-3.5-0.7-5.6c1.2-1.6,2.2-3.3,3.3-4.9c4-5.8,8.1-11.6,12-17.2c4.6,1.1,9.7,2.3,14.8,3.5
			c0.2-0.5,0.4-1.1,0.6-1.6c-8.1-3.8-17.3-6.1-22-14.7c-5.2-9.8,0.9-17.5,5.4-26.3c-2.5-1-4.7-1.7-6.9-2.7c-4.4-2-8.8-3.8-12.9-6.2
			c-1.3-0.8-2.1-3.3-2.2-5.1c0-0.6,2.6-2.1,4-2c6.3,0.2,12.7,0.2,18.8,1.4c11.6,2.3,22.1,7,30.5,15.7c5.2,5.4,7.5,11.6,7.4,18.9
			c-0.1,5.7,0,11.4,0.5,17.3C428.6,195,429.5,191.6,430.5,187.3z"/>
	</g>
	<g id="fill_x5F_front_x5F_hand">
		<g>
			<path class="st4" d="M95.9,327.2c2.5-5.6,0.9-10.8-0.5-16.2c-0.6-2.3-0.1-4.9-0.2-7.3c2.5,1.4,5.7,2.2,7.3,4.2
				c2.3,2.9,3.5,6.6,4.8,9.3c3.7,1.7,6.8,3.2,10.6,4.9c1.3-4.3,2.5-8.8,4.2-13.2c3.3-8.5,7-16.8,10.3-25.3c2.2-5.7,6.9-8,12.1-9.3
				c26.4-6.2,45,7.2,48.4,34.5c0.9,6.8-0.8,13.5-9,16.9c-14.6,6.1-28.4,14-43.2,19.3c-8,2.8-17.5,3.1-26,2
				c-9.5-1.2-17.7,0.9-26.1,4.1c-4,1.6-8,3-12.1,4.6c-1-7.1,0.7-8.6,18.6-15.6c-0.8-4.9-5-6.6-8.7-8.5c-3.6-1.8-7.4-2.9-10.9-4.8
				c-1.4-0.8-2.1-2.8-3.1-4.3c1.7-1,3.8-3.1,5.1-2.7c5.3,1.6,10.4,4.1,15.6,6.2C94,326.3,94.9,326.7,95.9,327.2z"/>
			<path class="st4" d="M121.2,350.7c-1.2,4.8-2.2,8.7-3.2,12.7c-0.7,2.8-3.4,3.3-5.6,0.9c-4.3-4.8-1.5-9.5,0.4-14.6
				C115.5,350,118.2,350.3,121.2,350.7z"/>
		</g>
	</g>
	<g id="fill_x5F_tale">
		<path class="st5" d="M84.5,469.1c9.8-3.2,19-8.5,28.9-13"/>
		<path class="st5" d="M7.5,442.1c4.3,5.3,7.9,11.4,13,15.8c19,16.1,40.9,18.7,64,11.2c9.8-3.2,19-8.5,28.9-13
			c4.8,3.7,4.9,5.5-1.1,9.1c-22.9,13.5-47,15.2-72.4,7.8c-15.3-4.5-24.9-14.6-31.5-28.3C7.9,443.7,7.7,442.8,7.5,442.1z"/>
	</g>
	<g id="fill_x5F_back_x5F_shoe">
		<path class="st6" d="M326.5,467.8c11.1-5.9,22.4-11.6,33.4-17.9c6-3.4,11.5-7.9,17.3-11.8c1.3-0.9,2.8-2,4.3-2.1
			c11.4-0.6,24.2,14.2,22.3,26c-6.7-4.3-12.9-9.6-21.7-8.9c7.3,4.6,14.7,8.9,21.6,13.9c3,2.2,5.3,5.5,7.3,8.7
			c2.4,3.8,1.5,6.9-2.7,8.3c-3,1-6.7,1.6-9.7,0.9c-8.3-2.1-16.4-5.1-24.6-7.8c-0.7-0.2-1.4-0.5-2.5-0.1c2,1.6,4,3.2,6.4,5.2
			c-4.4,3.8-9.5,4-14.5,3.6C351.8,484.8,334.3,476.1,326.5,467.8z"/>
	</g>
	<g id="fill_x5F_front_x5F_shoe">
		<path class="st7" d="M303.8,499.6c-1.6,1.5-2.6,2.3-3,2.6c7-0.3,14.5-1.3,21.8-0.8c3.3,0.2,6.4,3.3,9.5,5.1
			c-2.1,2.9-3.6,7.3-6.5,8.5c-6.5,2.9-13.7,4.7-20.7,6.2c-4.3,0.9-8.9,0.6-14.1,0.9c1.6,1.3,2.4,1.9,3.2,2.6
			c-11.2,14.3-26.8,13.7-42.4,13.1c-17-0.7-32.3-7.2-47.5-14c-16.1-7.3-32.2-14-50.1-15.5c-3.2-0.3-6.4-1.8-9.4-3.2
			c-4.4-2.1-5.7-6.4-3.7-10.9c3.1-7.1,14.6-14.4,22.2-14c1.3,0.1,3.3,1.1,3.8,2.2c5,11.8,15.1,14.9,26.2,13.8c10-1,19.8-4,29.5-6.5
			c7.8-2,15.5-4.4,24.6-3.1c-2.8,2.3-4.8,4-6.9,5.8C262.9,481.9,283.7,484.8,303.8,499.6z"/>
	</g>
	<g id="fill_x5F_shirt">
		<path class="st8" d="M211.8,313.6c4.6-4.3,8.7-8.5,16-8.4c8.1,0.1,16-1.6,22.6-6.9c-8.5,2-16.9,4-25.3,6c-0.2-0.5-0.4-1-0.7-1.5
			c4.9-5.7,9.8-11.3,14.8-17c-15.1,11.1-27.3,25.7-44.7,34.3c5.7-34-19.6-56.5-55.9-48.4c4.8-6.5,9.2-13.4,14.4-19.5
			c3.6-4.2,8.4-7.4,12.6-11.1c7.5-6.5,14.9-13,22.6-19.8c24.7,23.1,55.5,34.2,89.9,36.1c34.9,1.9,66.4-6.2,91.8-30.3
			c6.2,6.2,12.1,12.1,18.1,18.1c-0.9,0.4-2.3,1.1-4.2,2.1c12.3,1.1,22.7,5.1,32.3,12.9c-6.2,2.1-12,3.8-17.6,5.9
			c-19.6,7.4-36.9,19-54.8,29.5c-13.4,7.9-27,15.9-41.1,22.4c-27.6,12.6-55.7,14.7-83.5-0.2c-2-1.1-4.2-1.9-6.3-2.9
			C212.5,314.6,212.3,314.2,211.8,313.6z"/>
	</g>
	<g id="fill_x5F_pants">
		<path class="st9" d="M185.4,419.2c6.2-1.6,12.5-2.8,18.6-4.8c11.5-3.8,22.9-8.1,35.4-7c9.3,0.7,18.1,2.6,25.7,8.3
			c7.8,5.9,9.6,12.4,5.7,21.4c-1.4,3.2-3,6.4-5.3,9c-12.4,14.7-27.2,25.9-46.1,30.8c-8.7,2.2-17.5,3.1-25.4-4.5
			c14.7-9.4,30.7-14.7,47.3-18.8c-0.1-0.6-0.3-1.1-0.4-1.7c-6,1.2-12.4,1.6-18.1,3.7c-13.2,4.9-26.2,10.4-39.1,16.1
			c-16.7,7.4-32.4,5.3-48.3-3c-36.6-19.3-54.6-68.1-38.2-105c2.1-4.7,5.2-8.9,8-13.1c0.7-1,2.5-1.4,4.2-1.5
			c-1.7,5.8-3.9,11.4,1,15.8c2.2,2,5.9,2.3,9.7,3.6c0-2.8-0.1-3.9,0-5c1.1-9,3.8-12,12.6-13.7c21.7-4.2,41.3-13.5,60.3-24.3
			c4.9-2.8,9.5-7.8,14.6-8.2c4.7-0.3,9.6,4.3,14.5,6.7c20.8,10.1,42.3,9.8,64.2,4.2c16.2-4.1,30.6-12,44.7-20.5
			c17.7-10.6,35-21.9,52.8-32.2c6.9-4,14.9-6.4,22.5-9.2c1.2-0.4,3.5,0.5,4.5,1.5c13,12.6,20.1,28.3,23.3,45.9
			c5.9,32-6.6,58.9-24,84c-26.7,38.4-64.2,61.4-108.8,73.7c-14.9,4.1-30.1,5.4-45.5,5.1c-5-0.1-9.5-1.2-13-5.7c4-2.9,8.1-5.6,12-8.6
			c8.7-6.7,16.1-14.5,20.1-24.9c3-7.6,1-15.9-5-21.4c-8.8-8-19.5-11.5-31.2-11.3c-10.1,0.2-20,0.2-29.9-2.4c-4.2-1.1-9,0.3-13.4,1.6
			c6.8,0.4,13.6,0.9,20.4,1.3c0.1,0.4,0.2,0.9,0.3,1.3c-10.4,3.8-20.7,7.6-31.1,11.5C185.3,418.3,185.3,418.8,185.4,419.2z"/>
	</g>
	<g id="fill_x5F_sock">
		<path class="st10" d="M246.5,480.7c-14.9,4.1-29.8,8.4-44.9,12.1c-8.2,2-16.3,0.9-23.5-3.7c-2-1.3-3.9-3.2-5.2-5.2
			c-1.7-2.5-1.5-5.1,2.1-6.2c4.1-1.3,8.2-2.7,12.4-3.8c1-0.3,2.6,0,3.5,0.7c10.7,8.8,23.9,10.2,36.1,3.7c1.8-0.9,3.4-2.1,5.2-3
			C239.9,471.1,244.2,473,246.5,480.7z"/>
	</g>
</g>
</svg>
